<svg width="23" height="23" viewBox="0 0 23 23" fill="none" xmlns="http://www.w3.org/2000/svg">
<path d="M11.5366 0.384766C5.52818 0.384766 0.661621 5.25133 0.661621 11.2598C0.661621 17.2682 5.52818 22.1348 11.5366 22.1348C17.5451 22.1348 22.4116 17.2682 22.4116 11.2598C22.4116 5.25133 17.5451 0.384766 11.5366 0.384766ZM11.5366 19.9598C6.74075 19.9598 2.83662 16.0556 2.83662 11.2598C2.83662 6.46389 6.74075 2.55977 11.5366 2.55977C16.3325 2.55977 20.2366 6.46389 20.2366 11.2598C20.2366 16.0556 16.3325 19.9598 11.5366 19.9598ZM9.44862 10.0255C9.50843 9.67202 9.61718 9.35664 9.77487 9.07933C9.93256 8.80202 10.1501 8.57908 10.4165 8.41052C10.6721 8.25283 10.9929 8.16583 11.3898 8.16039C11.6508 8.16583 11.8901 8.20933 12.0967 8.30176C12.3196 8.39964 12.5045 8.53014 12.6622 8.69327C12.8199 8.85639 12.9395 9.05214 13.0265 9.26964C13.1135 9.48714 13.1624 9.72095 13.1733 9.96564H15.1199C15.1036 9.45452 15.0003 8.98689 14.8209 8.56277C14.6414 8.13864 14.3804 7.77433 14.0542 7.46439C13.7279 7.15445 13.3364 6.92064 12.8797 6.75208C12.4229 6.58352 11.9172 6.49652 11.3626 6.49652C10.6557 6.49652 10.0413 6.61614 9.51931 6.86083C8.99731 7.10552 8.56231 7.4372 8.21431 7.86133C7.86631 8.28545 7.60531 8.77483 7.43674 9.33489C7.26818 9.89495 7.18662 10.4876 7.18662 11.113V11.412C7.18662 12.0428 7.27362 12.6355 7.44218 13.1955C7.61074 13.7556 7.87175 14.245 8.21974 14.6636C8.56774 15.0823 9.00274 15.414 9.53018 15.6587C10.0576 15.9034 10.6721 16.023 11.3789 16.023C11.8901 16.023 12.3686 15.9415 12.8144 15.7729C13.2603 15.6043 13.6518 15.376 13.9889 15.0823C14.3261 14.7887 14.5979 14.4516 14.7937 14.0601C14.9894 13.6686 15.1036 13.2553 15.1199 12.8095H13.1733C13.1624 13.0378 13.1081 13.2445 13.0102 13.4402C12.9123 13.636 12.7818 13.7991 12.6187 13.935C12.4556 14.071 12.2652 14.1797 12.0477 14.2558C11.8411 14.3265 11.6236 14.3646 11.3898 14.3646C10.9983 14.3537 10.6775 14.2721 10.4165 14.109C10.1446 13.935 9.92712 13.7121 9.76943 13.4348C9.61174 13.1575 9.50299 12.8421 9.44318 12.4832C9.38337 12.1243 9.36162 11.7763 9.36162 11.412V11.113C9.36162 10.7432 9.38881 10.3789 9.44862 10.0255Z" fill="white" fill-opacity="0.86"/>
</svg>
