<svg width="52" height="52" viewBox="0 0 52 52" fill="none" xmlns="http://www.w3.org/2000/svg">
<path d="M51.4504 22.0232C51.4479 20.3742 50.9676 18.7615 50.068 17.3817C49.1683 16.0019 47.8882 14.9145 46.3836 14.252C46.536 13.8058 46.7033 13.3574 46.8346 12.9133C47.2515 11.5113 47.3337 10.0304 47.0743 8.59062C46.815 7.15083 46.2215 5.79256 45.3418 4.62578C44.4571 3.4254 43.3031 2.45107 41.9733 1.78173C40.6435 1.11239 39.1753 0.766866 37.6876 0.773156H14.3966C12.9089 0.766866 11.4407 1.11239 10.1109 1.78173C8.78106 2.45107 7.62706 3.4254 6.74237 4.62578C5.8642 5.79331 5.2724 7.15202 5.01489 8.59185C4.75739 10.0317 4.84144 11.5121 5.26022 12.9133C5.3915 13.3574 5.55877 13.8058 5.71122 14.252C4.20462 14.9129 2.92227 15.9996 2.02066 17.3796C1.11905 18.7595 0.637156 20.373 0.633789 22.0232C0.633789 28.7169 5.67099 36.4732 19.69 36.862V42.2107C19.7318 42.6396 19.6783 43.0726 19.5335 43.4784C19.3886 43.8841 19.156 44.2527 18.8523 44.5574C18.5486 44.8622 18.1814 45.0957 17.7771 45.241C17.3728 45.3864 16.9414 45.4401 16.514 45.3982H14.3966C13.5543 45.3982 12.7464 45.734 12.1508 46.3318C11.5552 46.9295 11.2206 47.7403 11.2206 48.5857C11.2206 49.431 11.5552 50.2418 12.1508 50.8396C12.7464 51.4373 13.5543 51.7732 14.3966 51.7732H37.6876C38.5299 51.7732 39.3378 51.4373 39.9334 50.8396C40.529 50.2418 40.8636 49.431 40.8636 48.5857C40.8636 47.7403 40.529 46.9295 39.9334 46.3318C39.3378 45.734 38.5299 45.3982 37.6876 45.3982H35.6083C35.1783 45.4442 34.7435 45.3937 34.3353 45.2503C33.9271 45.107 33.5557 44.8744 33.2481 44.5693C32.9405 44.2643 32.7043 43.8944 32.5566 43.4864C32.4089 43.0785 32.3535 42.6427 32.3942 42.2107V36.862C46.4132 36.4732 51.4504 28.7169 51.4504 22.0232ZM45.0983 22.0232C45.0983 25.3955 42.6549 28.9507 36.1758 30.1215C39.2755 27.2346 41.8669 23.8428 43.8406 20.0894C44.2137 20.2557 44.5309 20.5268 44.7541 20.8699C44.9772 21.2129 45.0968 21.6135 45.0983 22.0232ZM11.8304 8.44228C12.1268 8.03942 12.5136 7.71231 12.9594 7.48747C13.4053 7.26263 13.8977 7.14639 14.3966 7.14816H37.6876C38.1866 7.14639 38.6789 7.26263 39.1248 7.48747C39.5706 7.71231 39.9574 8.03942 40.2538 8.44228C40.5394 8.81562 40.7326 9.25164 40.8177 9.71452C40.9027 10.1774 40.8771 10.6539 40.7429 11.1049C39.0248 16.7097 35.8561 21.7568 31.5599 25.7313C29.854 27.0098 28.4675 28.6687 27.5099 30.5772C26.5523 32.4857 26.0498 34.5914 26.0421 36.7282C26.0341 34.5908 25.5315 32.4846 24.5739 30.5755C23.6164 28.6664 22.2301 27.0066 20.5243 25.727C16.2274 21.754 13.0585 16.7074 11.3413 11.1028C11.2075 10.6521 11.182 10.176 11.2671 9.7135C11.3521 9.25103 11.5451 8.81538 11.8304 8.44228ZM6.98587 22.0232C6.98745 21.6135 7.10701 21.2129 7.33015 20.8699C7.5533 20.5268 7.8705 20.2557 8.24358 20.0894C10.2175 23.8433 12.8097 27.2351 15.9105 30.1215C9.4293 28.9528 6.98587 25.3955 6.98587 22.0232Z" fill="white"/>
</svg>
