<svg width="26" height="26" viewBox="0 0 26 26" fill="none" xmlns="http://www.w3.org/2000/svg">
<g clip-path="url(#clip0_458_1639)">
<path d="M13.2559 1.66797V24.5335" stroke="#FE9C69" stroke-width="2.07869" stroke-linecap="round" stroke-linejoin="round"/>
<path d="M18.4523 5.82715H10.6572C9.69246 5.82715 8.76719 6.21041 8.08499 6.89261C7.40279 7.57481 7.01953 8.50007 7.01953 9.46485C7.01953 10.4296 7.40279 11.3549 8.08499 12.0371C8.76719 12.7193 9.69246 13.1026 10.6572 13.1026H15.854C16.8187 13.1026 17.744 13.4858 18.4262 14.168C19.1084 14.8502 19.4917 15.7755 19.4917 16.7403C19.4917 17.705 19.1084 18.6303 18.4262 19.3125C17.744 19.9947 16.8187 20.378 15.854 20.378H7.01953" stroke="#FE9C69" stroke-width="2.07869" stroke-linecap="round" stroke-linejoin="round"/>
</g>
<defs>
<clipPath id="clip0_458_1639">
<rect width="24.9443" height="24.9443" fill="white" transform="translate(0.785156 0.628906)"/>
</clipPath>
</defs>
</svg>
