<svg width="30" height="34" viewBox="0 0 30 34" fill="none" xmlns="http://www.w3.org/2000/svg">
<path d="M28.071 2.79004C28.071 2.19851 27.5915 1.71899 26.9999 1.71899H20.4657C17.4093 1.71899 14.4276 2.50503 12.1814 3.96454C9.93684 5.42302 8.50422 7.52038 8.50422 9.86636V13.0411H3.04102C2.44949 13.0411 1.96996 13.5206 1.96996 14.1122V19.7732C1.96996 20.3647 2.44949 20.8443 3.04102 20.8443H8.50422V31.0953C8.50422 31.6868 8.98374 32.1664 9.57527 32.1664H18.2876C18.8791 32.1664 19.3587 31.6868 19.3587 31.0953V20.8443H24.8219C25.265 20.8443 25.6624 20.5714 25.8215 20.1578L27.9996 14.4968C28.1263 14.1674 28.0826 13.7968 27.8829 13.5058C27.6831 13.2149 27.3528 13.0411 26.9999 13.0411H19.3587V9.89729C19.3738 9.87481 19.4159 9.82428 19.5091 9.76372C19.7138 9.63075 20.0561 9.52215 20.4657 9.52215H26.9999C27.5915 9.52215 28.071 9.04262 28.071 8.4511V2.79004Z" stroke="white" stroke-opacity="0.79" stroke-width="2.1421" stroke-linecap="round" stroke-linejoin="round"/>
</svg>
