<svg width="54" height="43" viewBox="0 0 54 43" fill="none" xmlns="http://www.w3.org/2000/svg">
<g clip-path="url(#clip0_593_1982)">
<path d="M41.3734 0.570313H12.783C9.57616 0.573585 6.50188 1.59855 4.23433 3.42042C1.96678 5.24228 0.691085 7.71233 0.687012 10.2888L0.687012 26.1919C0.691085 28.7684 1.96678 31.2384 4.23433 33.0603C6.50188 34.8822 9.57616 35.9071 12.783 35.9104H15.9455L24.9625 41.9677C25.5559 42.3662 26.3047 42.5846 27.0782 42.5846C27.8516 42.5846 28.6004 42.3662 29.1938 41.9677L38.2108 35.9104H41.3734C44.5802 35.9071 47.6544 34.8822 49.922 33.0603C52.1895 31.2384 53.4652 28.7684 53.4693 26.1919V10.2888C53.4652 7.71233 52.1895 5.24228 49.922 3.42042C47.6544 1.59855 44.5802 0.573585 41.3734 0.570312V0.570313ZM46.8715 26.1919C46.8715 27.3635 46.2923 28.4871 45.2612 29.3155C44.23 30.144 42.8316 30.6094 41.3734 30.6094H37.0122C36.2386 30.6098 35.4897 30.8287 34.8965 31.2278L27.0782 36.4794L19.2598 31.2278C18.6666 30.8287 17.9178 30.6098 17.1441 30.6094H12.783C11.3248 30.6094 9.92628 30.144 8.89517 29.3155C7.86407 28.4871 7.2848 27.3635 7.2848 26.1919V10.2888C7.2848 9.11724 7.86407 7.99363 8.89517 7.16518C9.92628 6.33674 11.3248 5.87132 12.783 5.87132H41.3734C42.8316 5.87132 44.23 6.33674 45.2612 7.16518C46.2923 7.99363 46.8715 9.11724 46.8715 10.2888V26.1919Z" fill="white"/>
<path d="M17.1813 16.4739H23.7791C24.654 16.4739 25.4931 16.1946 26.1118 15.6975C26.7305 15.2005 27.078 14.5263 27.078 13.8234C27.078 13.1204 26.7305 12.4462 26.1118 11.9492C25.4931 11.4521 24.654 11.1729 23.7791 11.1729H17.1813C16.3064 11.1729 15.4673 11.4521 14.8487 11.9492C14.23 12.4462 13.8824 13.1204 13.8824 13.8234C13.8824 14.5263 14.23 15.2005 14.8487 15.6975C15.4673 16.1946 16.3064 16.4739 17.1813 16.4739Z" fill="white"/>
<path d="M36.9747 20.0088H17.1813C16.3064 20.0088 15.4673 20.288 14.8487 20.7851C14.23 21.2822 13.8824 21.9563 13.8824 22.6593C13.8824 23.3623 14.23 24.0364 14.8487 24.5335C15.4673 25.0306 16.3064 25.3098 17.1813 25.3098H36.9747C37.8496 25.3098 38.6887 25.0306 39.3074 24.5335C39.926 24.0364 40.2736 23.3623 40.2736 22.6593C40.2736 21.9563 39.926 21.2822 39.3074 20.7851C38.6887 20.288 37.8496 20.0088 36.9747 20.0088Z" fill="white"/>
</g>
<defs>
<clipPath id="clip0_593_1982">
<rect width="52.7823" height="42.4081" fill="white" transform="translate(0.687012 0.570312)"/>
</clipPath>
</defs>
</svg>
