<svg width="18" height="18" viewBox="0 0 18 18" fill="none" xmlns="http://www.w3.org/2000/svg">
<path fill-rule="evenodd" clip-rule="evenodd" d="M4.70026 7.13715C4.19218 4.59673 6.13525 2.22656 8.72598 2.22656H9.25146C11.5257 2.22656 13.3569 4.09631 13.3569 6.35683C13.3569 7.62094 12.7742 8.8301 11.772 9.60961L9.59675 11.3014C9.56582 11.3255 9.54773 11.3625 9.54773 11.4017V11.8341C9.54773 12.2315 9.22559 12.5537 8.82822 12.5537C8.43085 12.5537 8.10871 12.2315 8.10871 11.8341V11.4017C8.10871 10.9184 8.33182 10.4622 8.71328 10.1655L10.8885 8.47371C11.5358 7.97024 11.9179 7.18245 11.9179 6.35683C11.9179 4.87735 10.7173 3.66558 9.25146 3.66558H8.72598C7.04334 3.66558 5.78134 5.20497 6.11134 6.85493L6.14783 7.03738C6.22576 7.42704 5.97305 7.80609 5.5834 7.88403C5.19374 7.96196 4.81468 7.70925 4.73675 7.3196L4.70026 7.13715Z" fill="black"/>
<circle cx="8.82828" cy="14.5431" r="0.50789" stroke="black" stroke-width="1.01578"/>
</svg>
