<svg width="31" height="28" viewBox="0 0 31 28" fill="none" xmlns="http://www.w3.org/2000/svg">
<path d="M6.87505 7.60645H0.0187988V27.3676H6.87505V7.60645Z" fill="white" fill-opacity="0.79"/>
<path d="M23.157 7.60645C18.373 7.60645 17.5503 9.04336 17.1595 10.4295V7.60645H10.3032V27.3676H17.1595V16.0755C17.1595 14.2448 18.3645 13.2525 20.5876 13.2525C22.7576 13.2525 24.0157 14.2236 24.0157 16.0755V27.3676H30.872V17.487C30.872 11.841 29.9789 7.60645 23.157 7.60645Z" fill="white" fill-opacity="0.79"/>
<path d="M3.44704 6.19488C5.34034 6.19488 6.87517 4.93097 6.87517 3.37185C6.87517 1.81274 5.34034 0.548828 3.44704 0.548828C1.55374 0.548828 0.0189209 1.81274 0.0189209 3.37185C0.0189209 4.93097 1.55374 6.19488 3.44704 6.19488Z" fill="white" fill-opacity="0.79"/>
</svg>
