<svg width="85" height="24" viewBox="0 0 85 24" fill="none" xmlns="http://www.w3.org/2000/svg">
<g filter="url(#filter0_d_661_204)">
<g filter="url(#filter1_d_661_204)">
<path d="M34.2778 19.6011V1.08203H48.2166V4.71712H39.1095V8.51497H47.504V12.1591H39.1095V15.966H48.2166V19.6011H34.2778Z" fill="white" fill-opacity="0.74" shape-rendering="crispEdges"/>
</g>
<g filter="url(#filter2_d_661_204)">
<path fill-rule="evenodd" clip-rule="evenodd" d="M34.1516 19.7921V1.08203H48.2165V4.9081H39.161V8.51497H47.508V12.3501H39.161V15.966H48.2165V19.7921H34.1516ZM39.0585 16.0615V12.2546H47.4055V8.61046H39.0585V4.81261H48.114V1.17752H34.2541V19.6966H48.114V16.0615H39.0585Z" fill="black"/>
<path d="M34.0561 19.7921V19.8876H34.1516H48.2165H48.312V19.7921V15.966V15.8705H48.2165H39.2565V12.4456H47.508H47.6035V12.3501V8.51497V8.41948H47.508H39.2565V5.00359H48.2165H48.312V4.9081V1.08203V0.986542H48.2165H34.1516H34.0561V1.08203V19.7921ZM34.3496 1.27301H48.0185V4.71712H39.0585H38.963V4.81261V8.61046V8.70595H39.0585H47.31V12.1591H39.0585H38.963V12.2546V16.0615V16.157H39.0585H48.0185V19.6011H34.3496V1.27301Z" stroke="black" stroke-width="0.190978"/>
</g>
<g filter="url(#filter3_d_661_204)">
<path d="M1.55054 6.39394V4.21289H10.9421V6.39394H7.57285V15.3243L4.9252 16.471V6.39394H1.55054Z" fill="white" fill-opacity="0.74" shape-rendering="crispEdges"/>
<path d="M12.0245 16.471V4.21289H19.7721V6.39394H14.7102V8.67265H19.3761V10.8591H14.7102V13.1433H19.7721V15.3243L12.0245 16.471Z" fill="white" fill-opacity="0.74" shape-rendering="crispEdges"/>
<path d="M30.6815 4.21289V15.3243H28.4028L23.981 8.91138H23.9105V15.3243L21.2249 16.471V4.21289H23.5361L27.9091 10.615H28.0013V4.21289H30.6815Z" fill="white" fill-opacity="0.74" shape-rendering="crispEdges"/>
<path d="M55.1764 15.7275L51.0693 16.4711V4.2129H55.171C56.3031 4.2129 57.2779 4.43535 58.0954 4.88024C58.9164 5.32151 59.5494 5.9581 59.9943 6.79001C60.4392 7.61831 60.6616 8.60937 60.6616 9.76319C60.6616 10.9206 60.4392 11.9153 59.9943 12.7472C59.553 13.5791 58.9218 14.2175 58.1008 14.6624C57.2797 15.1037 56.3049 15.7275 55.1764 15.7275ZM53.755 13.0348H55.0733C55.6955 13.0348 56.2217 12.9299 56.6522 12.7201C57.0862 12.5067 57.4135 12.1613 57.6342 11.6838C57.8584 11.2028 57.9706 10.5625 57.9706 9.76319C57.9706 8.96383 57.8584 8.32724 57.6342 7.85341C57.4099 7.37597 57.079 7.03235 56.6413 6.82257C56.2073 6.60916 55.672 6.50246 55.0354 6.50246H53.755V13.0348Z" fill="white" fill-opacity="0.74" shape-rendering="crispEdges"/>
<path d="M61.6949 16.471V4.21289H69.4425V6.39394H64.3805V8.67265H69.0464V10.8591H64.3805V13.1433H69.4425V15.3243L61.6949 16.471Z" fill="white" fill-opacity="0.74" shape-rendering="crispEdges"/>
<path d="M70.8952 16.471V4.21289H75.4852C76.3171 4.21289 77.0351 4.363 77.6391 4.66321C78.2468 4.9598 78.7152 5.38661 79.0443 5.94363C79.3735 6.49703 79.538 7.15351 79.538 7.91308C79.538 8.68351 79.3698 9.33818 79.0335 9.87712C78.6971 10.4124 78.2196 10.8212 77.6011 11.1033C76.9826 11.3818 76.2502 11.521 75.4038 11.521H72.5012V9.4051H74.9046C75.3098 9.4051 75.6479 9.35265 75.9192 9.24776C76.1941 9.13925 76.4021 8.97648 76.5432 8.75946C76.6842 8.53883 76.7547 8.2567 76.7547 7.91308C76.7547 7.56947 76.6842 7.28553 76.5432 7.06128C76.4021 6.83341 76.1941 6.66341 75.9192 6.55128C75.6443 6.43554 75.3061 6.37767 74.9046 6.37767H73.5808V15.3243L70.8952 16.471ZM77.1508 10.2461L79.9178 15.3243H76.988L74.2753 10.2461H77.1508Z" fill="white" fill-opacity="0.74" shape-rendering="crispEdges"/>
<path d="M50.8306 16.7569V16.4711V4.2129V3.97418H51.0693H55.171C56.3342 3.97418 57.3498 4.2028 58.2089 4.67026C59.0717 5.13406 59.7381 5.80479 60.2048 6.67744C60.672 7.54742 60.9003 8.57897 60.9003 9.76319C60.9003 10.9508 60.6721 11.9857 60.2052 12.8591C60.205 12.8593 60.2049 12.8596 60.2048 12.8598L50.8306 16.7569ZM50.8306 16.7569L51.1119 16.706L55.1983 15.9661L50.8306 16.7569ZM57.6342 7.85341C57.8584 8.32724 57.9706 8.96383 57.9706 9.76319C57.9706 10.5625 57.8584 11.2028 57.6342 11.6838C57.4135 12.1613 57.0862 12.5067 56.6522 12.7201L57.6342 7.85341ZM57.6342 7.85341C57.4099 7.37597 57.079 7.03235 56.6413 6.82257L57.6342 7.85341ZM70.6565 16.8326V16.471V4.21289V3.97417H70.8952H75.4852C76.3451 3.97417 77.1008 4.12929 77.7445 4.44899C78.3916 4.76499 78.8956 5.22296 79.2495 5.82159C79.2496 5.82179 79.2497 5.82199 79.2498 5.82218L79.0443 5.94363C79.3735 6.49703 79.538 7.15351 79.538 7.91308C79.538 8.68351 79.3698 9.33818 79.0335 9.87712L70.6565 16.8326ZM70.6565 16.8326L70.9889 16.6906L73.6746 15.5439L73.8195 15.482V15.3243V11.7598M70.6565 16.8326L73.8195 11.7598M73.8195 11.7598H74.8132L76.7775 15.4368L76.8449 15.563H76.988H79.9178H80.3198L80.1274 15.2101L77.9425 11.2002C78.4854 10.9075 78.9184 10.5089 79.2356 10.0041L73.8195 11.7598ZM1.31181 6.39394V6.63266H1.55054H4.68648V16.471V16.8346L5.02008 16.6901L7.66772 15.5434L7.81157 15.4811V15.3243V6.63266H10.9421H11.1808V6.39394V4.21289V3.97417H10.9421H1.55054H1.31181V4.21289V6.39394ZM11.7858 16.471V16.7477L12.0595 16.7072L19.8071 15.5605L20.0109 15.5303V15.3243V13.1433V12.9045H19.7721H14.9489V11.0979H19.3761H19.6148V10.8591V8.67265V8.43393H19.3761H14.9489V6.63266H19.7721H20.0109V6.39394V4.21289V3.97417H19.7721H12.0245H11.7858V4.21289V16.471ZM30.9203 4.21289V3.97417H30.6815H28.0013H27.7626V4.21289V9.97728L23.7333 4.07824L23.6622 3.97417H23.5361H21.2249H20.9862V4.21289V16.471V16.8326L21.3186 16.6906L24.0042 15.5439L24.1492 15.482V15.3243V9.57585L28.2063 15.4598L28.2775 15.563H28.4028H30.6815H30.9203V15.3243V4.21289ZM57.4175 11.5837C57.2178 12.0158 56.9278 12.3184 56.5476 12.5055C56.158 12.6954 55.6697 12.796 55.0733 12.796H53.9937V6.74118H55.0354C55.6465 6.74118 56.1434 6.84377 56.536 7.03681L56.5381 7.03784C56.9217 7.22172 57.2151 7.52263 57.4181 7.9549L57.4184 7.95554C57.6217 8.38511 57.7318 8.98235 57.7318 9.76319C57.7318 10.5437 57.6218 11.1454 57.4178 11.583L57.4175 11.5837ZM61.4561 16.471V16.7477L61.7298 16.7072L69.4774 15.5605L69.6812 15.5303V15.3243V13.1433V12.9045H69.4425H64.6192V11.0979H69.0464H69.2851V10.8591V8.67265V8.43393H69.0464H64.6192V6.63266H69.4425H69.6812V6.39394V4.21289V3.97417H69.4425H61.6949H61.4561V4.21289V16.471ZM74.9046 9.16637H73.8195V6.61639H74.9046C75.2847 6.61639 75.5893 6.67138 75.8266 6.77131L75.8291 6.77232C76.0625 6.86754 76.2285 7.0066 76.3402 7.18693L76.3411 7.18839C76.4521 7.3648 76.516 7.6013 76.516 7.91308C76.516 8.22457 76.4522 8.45812 76.3426 8.63C76.2324 8.7992 76.0672 8.93253 75.8324 9.02537C75.5972 9.11619 75.2906 9.16637 74.9046 9.16637Z" stroke="black" stroke-width="0.477444" shape-rendering="crispEdges"/>
</g>
</g>
<defs>
<filter id="filter0_d_661_204" x="1.073" y="0.890625" width="83.3091" height="22.7532" filterUnits="userSpaceOnUse" color-interpolation-filters="sRGB">
<feFlood flood-opacity="0" result="BackgroundImageFix"/>
<feColorMatrix in="SourceAlpha" type="matrix" values="0 0 0 0 0 0 0 0 0 0 0 0 0 0 0 0 0 0 127 0" result="hardAlpha"/>
<feOffset dx="2.38722" dy="2.38722"/>
<feGaussianBlur stdDeviation="0.636592"/>
<feComposite in2="hardAlpha" operator="out"/>
<feColorMatrix type="matrix" values="0 0 0 0 0 0 0 0 0 0 0 0 0 0 0 0 0 0 0.25 0"/>
<feBlend mode="normal" in2="BackgroundImageFix" result="effect1_dropShadow_661_204"/>
<feBlend mode="normal" in="SourceGraphic" in2="effect1_dropShadow_661_204" result="shape"/>
</filter>
<filter id="filter1_d_661_204" x="34.2778" y="1.08203" width="16.4851" height="21.0659" filterUnits="userSpaceOnUse" color-interpolation-filters="sRGB">
<feFlood flood-opacity="0" result="BackgroundImageFix"/>
<feColorMatrix in="SourceAlpha" type="matrix" values="0 0 0 0 0 0 0 0 0 0 0 0 0 0 0 0 0 0 127 0" result="hardAlpha"/>
<feOffset dx="1.27318" dy="1.27318"/>
<feGaussianBlur stdDeviation="0.636592"/>
<feComposite in2="hardAlpha" operator="out"/>
<feColorMatrix type="matrix" values="0 0 0 0 0 0 0 0 0 0 0 0 0 0 0 0 0 0 0.25 0"/>
<feBlend mode="normal" in2="BackgroundImageFix" result="effect1_dropShadow_661_204"/>
<feBlend mode="normal" in="SourceGraphic" in2="effect1_dropShadow_661_204" result="shape"/>
</filter>
<filter id="filter2_d_661_204" x="33.6424" y="0.572329" width="16.9931" height="21.6391" filterUnits="userSpaceOnUse" color-interpolation-filters="sRGB">
<feFlood flood-opacity="0" result="BackgroundImageFix"/>
<feColorMatrix in="SourceAlpha" type="matrix" values="0 0 0 0 0 0 0 0 0 0 0 0 0 0 0 0 0 0 127 0" result="hardAlpha"/>
<feOffset dx="0.954889" dy="0.954889"/>
<feGaussianBlur stdDeviation="0.636592"/>
<feComposite in2="hardAlpha" operator="out"/>
<feColorMatrix type="matrix" values="0 0 0 0 0 0 0 0 0 0 0 0 0 0 0 0 0 0 0.25 0"/>
<feBlend mode="normal" in2="BackgroundImageFix" result="effect1_dropShadow_661_204"/>
<feBlend mode="normal" in="SourceGraphic" in2="effect1_dropShadow_661_204" result="shape"/>
</filter>
<filter id="filter3_d_661_204" x="0.754702" y="3.41706" width="82.1951" height="16.0093" filterUnits="userSpaceOnUse" color-interpolation-filters="sRGB">
<feFlood flood-opacity="0" result="BackgroundImageFix"/>
<feColorMatrix in="SourceAlpha" type="matrix" values="0 0 0 0 0 0 0 0 0 0 0 0 0 0 0 0 0 0 127 0" result="hardAlpha"/>
<feOffset dx="0.954889" dy="0.954889"/>
<feGaussianBlur stdDeviation="0.636592"/>
<feComposite in2="hardAlpha" operator="out"/>
<feColorMatrix type="matrix" values="0 0 0 0 0 0 0 0 0 0 0 0 0 0 0 0 0 0 0.25 0"/>
<feBlend mode="normal" in2="BackgroundImageFix" result="effect1_dropShadow_661_204"/>
<feBlend mode="normal" in="SourceGraphic" in2="effect1_dropShadow_661_204" result="shape"/>
</filter>
</defs>
</svg>
