<svg width="18" height="18" viewBox="0 0 18 18" fill="none" xmlns="http://www.w3.org/2000/svg">
<path fill-rule="evenodd" clip-rule="evenodd" d="M6.07646 2.48105C6.07646 2.13043 5.79222 1.84619 5.4416 1.84619C5.09097 1.84619 4.80673 2.13043 4.80673 2.48105V3.5466C3.26925 3.65511 2.05566 4.93675 2.05566 6.50185V7.34833C2.05566 8.91343 3.26925 10.1951 4.80673 10.3036L4.80673 14.7551C4.80673 15.1057 5.09097 15.3899 5.4416 15.3899C5.79222 15.3899 6.07646 15.1057 6.07646 14.7551V10.3036C7.61394 10.1951 8.82753 8.91343 8.82753 7.34833V6.50185C8.82753 4.93675 7.61394 3.65511 6.07646 3.5466V2.48105ZM5.86484 4.80888H5.01835C4.08335 4.80888 3.32539 5.56685 3.32539 6.50185V7.34833C3.32539 8.28333 4.08335 9.0413 5.01835 9.0413H5.86484C6.79984 9.0413 7.5578 8.28333 7.5578 7.34833V6.50185C7.5578 5.56685 6.79984 4.80888 5.86484 4.80888Z" fill="black"/>
<path fill-rule="evenodd" clip-rule="evenodd" d="M15.6 9.88754C15.6 8.32244 14.3864 7.04079 12.8489 6.93229V2.48081C12.8489 2.13018 12.5647 1.84595 12.2141 1.84595C11.8634 1.84595 11.5792 2.13018 11.5792 2.48081L11.5792 6.93229C10.0417 7.04079 8.82812 8.32244 8.82812 9.88753V10.734C8.82812 12.2991 10.0417 13.5808 11.5792 13.6893L11.5792 14.7548C11.5792 15.1054 11.8634 15.3897 12.2141 15.3897C12.5647 15.3897 12.8489 15.1054 12.8489 14.7548L12.8489 13.6893C14.3864 13.5808 15.6 12.2991 15.6 10.734V9.88754ZM12.6373 8.19457H11.7908C10.8558 8.19457 10.0978 8.95254 10.0978 9.88753V10.734C10.0978 11.669 10.8558 12.427 11.7908 12.427H12.6373C13.5723 12.427 14.3303 11.669 14.3303 10.734V9.88754C14.3303 8.95254 13.5723 8.19457 12.6373 8.19457Z" fill="black"/>
</svg>
