<svg width="18" height="18" viewBox="0 0 18 18" fill="none" xmlns="http://www.w3.org/2000/svg">
<path d="M11.3672 10.0208C11.6944 10.0208 11.9597 9.75547 11.9597 9.42822C11.9597 9.10097 11.6944 8.83568 11.3672 8.83568L11.3672 10.0208ZM2.48336 9.00923C2.25196 9.24063 2.25196 9.61581 2.48336 9.84721L6.25424 13.6181C6.48564 13.8495 6.86082 13.8495 7.09222 13.6181C7.32362 13.3867 7.32362 13.0115 7.09222 12.7801L3.74032 9.42822L7.09222 6.07632C7.32362 5.84492 7.32362 5.46975 7.09222 5.23835C6.86082 5.00694 6.48565 5.00694 6.25425 5.23835L2.48336 9.00923ZM11.3672 8.83568L2.90234 8.83568L2.90234 10.0208L11.3672 10.0208L11.3672 8.83568Z" fill="black"/>
<path d="M8.82812 6.46562V5.61914C8.82812 4.45039 9.77558 3.50293 10.9443 3.50293H12.6373C13.806 3.50293 14.7535 4.45039 14.7535 5.61914V13.2375C14.7535 14.4062 13.806 15.3537 12.6373 15.3537H10.9443C9.77558 15.3537 8.82812 14.4062 8.82812 13.2375V12.8142" stroke="black" stroke-width="1.26972" stroke-linecap="round"/>
</svg>
