<svg width="26" height="26" viewBox="0 0 26 26" fill="none" xmlns="http://www.w3.org/2000/svg">
<g clip-path="url(#clip0_458_1629)">
<path d="M17.4495 3.79492H1.85938V17.3064H17.4495V3.79492Z" stroke="#FE9C69" stroke-width="2.07869" stroke-linecap="round" stroke-linejoin="round"/>
<path d="M17.4531 8.99316H21.6105L24.7285 12.1112V17.3079H17.4531V8.99316Z" stroke="#FE9C69" stroke-width="2.07869" stroke-linecap="round" stroke-linejoin="round"/>
<path d="M6.54172 22.5034C7.97675 22.5034 9.14008 21.34 9.14008 19.905C9.14008 18.47 7.97675 17.3066 6.54172 17.3066C5.10668 17.3066 3.94336 18.47 3.94336 19.905C3.94336 21.34 5.10668 22.5034 6.54172 22.5034Z" stroke="#FE9C69" stroke-width="2.07869" stroke-linecap="round" stroke-linejoin="round"/>
<path d="M20.0515 22.5034C21.4865 22.5034 22.6498 21.34 22.6498 19.905C22.6498 18.47 21.4865 17.3066 20.0515 17.3066C18.6165 17.3066 17.4531 18.47 17.4531 19.905C17.4531 21.34 18.6165 22.5034 20.0515 22.5034Z" stroke="#FE9C69" stroke-width="2.07869" stroke-linecap="round" stroke-linejoin="round"/>
</g>
<defs>
<clipPath id="clip0_458_1629">
<rect width="24.9443" height="24.9443" fill="white" transform="translate(0.824219 0.676758)"/>
</clipPath>
</defs>
</svg>
