<svg width="38" height="28" viewBox="0 0 38 28" fill="none" xmlns="http://www.w3.org/2000/svg">
<path d="M37.5922 4.18027C37.5001 4.08569 37.3886 4.00531 37.2628 3.94286C37.5825 3.43223 37.8047 2.88361 37.9216 2.31656C37.9668 2.08935 37.9313 1.85616 37.8194 1.64538C37.7075 1.43461 37.5241 1.25536 37.2915 1.12948C37.0576 1.00183 36.7838 0.933803 36.5038 0.933803C36.2238 0.933803 35.9499 1.00183 35.7161 1.12948C34.7227 1.66448 33.6139 2.03532 32.4508 2.22159C31.1143 1.18173 29.4228 0.509559 27.6077 0.297066C25.7926 0.0845734 23.9427 0.342136 22.311 1.03451C20.6078 1.77353 19.2482 2.95967 18.4449 4.40736C17.6416 5.85505 17.4399 7.48261 17.8713 9.03544C17.9473 9.35027 18.171 9.6272 18.4933 9.80529C18.8156 9.98339 19.2101 10.0481 19.5899 9.9851C19.9697 9.92214 20.3038 9.73668 20.5187 9.46954C20.7336 9.20239 20.8116 8.87544 20.7356 8.56061C20.439 7.52968 20.5586 6.44657 21.076 5.47737C21.5934 4.50817 22.48 3.7064 23.6 3.195C24.807 2.68714 26.1841 2.52811 27.5126 2.74319C28.8412 2.95826 30.0449 3.5351 30.9327 4.38208C31.095 4.51737 31.2944 4.61822 31.5138 4.67608C31.7331 4.73394 31.9661 4.7471 32.193 4.71446H32.551C32.3885 4.85389 32.2697 5.02417 32.205 5.21043C32.1402 5.3967 32.1315 5.59327 32.1795 5.78298C32.2275 5.97269 32.3309 6.14976 32.4805 6.29872C32.6302 6.44769 32.8216 6.56401 33.0379 6.63753C32.8542 6.76251 32.7108 6.92344 32.6208 7.10581C32.5308 7.28818 32.497 7.48625 32.5224 7.68217C32.76 10.2113 32.2458 12.7501 31.0248 15.0763C29.8039 17.4024 27.9135 19.445 25.5191 21.025C23.0633 22.7716 20.0916 23.946 16.9083 24.4278C13.7249 24.9096 10.4443 24.6816 7.40219 23.7671C9.82104 23.4312 12.0755 22.5339 13.9042 21.1793C14.0887 21.0046 14.2074 20.789 14.2456 20.559C14.2838 20.329 14.2398 20.0948 14.119 19.8854C13.9999 19.6778 13.8106 19.5034 13.5742 19.3833C13.3378 19.2632 13.0643 19.2025 12.7871 19.2087C11.9705 19.2034 11.1646 19.0535 10.4236 18.7689C9.68255 18.4843 9.0235 18.0717 8.49063 17.5587C8.98997 17.479 9.4725 17.339 9.9228 17.1432C10.1921 17.0335 10.413 16.8564 10.5543 16.637C10.6956 16.4177 10.7503 16.167 10.7105 15.9205C10.672 15.6826 10.5474 15.4599 10.353 15.2819C10.1587 15.1039 9.90384 14.9788 9.62205 14.9234C8.68231 14.737 7.80652 14.3748 7.06178 13.8645C6.31705 13.3542 5.72313 12.7094 5.32555 11.9794C5.66927 11.9794 6.01299 12.0388 6.38535 12.0506C6.68728 12.0692 6.98853 12.0079 7.24585 11.8757C7.50316 11.7435 7.7033 11.547 7.81752 11.3146C7.91983 11.0823 7.93204 10.8293 7.85245 10.5909C7.77285 10.3526 7.60542 10.1408 7.37355 9.9851C4.98183 8.18074 4.39464 6.2458 4.73836 4.88065C7.43967 7.25073 10.9286 8.90323 14.7635 9.62898C14.9516 9.6586 15.1449 9.65722 15.3323 9.62493C15.5197 9.59264 15.6977 9.53006 15.8559 9.44078C16.0142 9.35149 16.1497 9.23724 16.2546 9.10455C16.3596 8.97186 16.4321 8.82333 16.4678 8.66744C16.5035 8.51155 16.5019 8.35136 16.4629 8.196C16.424 8.04064 16.3485 7.89316 16.2407 7.76199C16.133 7.63081 15.9952 7.51851 15.8351 7.43149C15.675 7.34447 15.4958 7.28443 15.3077 7.25482C11.4256 6.50085 7.97589 4.66029 5.54037 2.04353C5.41158 1.90821 5.24878 1.79777 5.06329 1.71987C4.8778 1.64197 4.67406 1.59849 4.46625 1.59244C4.25681 1.58601 4.04822 1.61776 3.8552 1.68544C3.66218 1.75313 3.48944 1.85511 3.34916 1.98418C2.42161 2.99743 1.88326 4.21854 1.80408 5.48876C1.72491 6.75898 2.10857 8.01957 2.90519 9.10666H2.7763C2.56459 9.20206 2.38535 9.3402 2.25518 9.50828C2.125 9.67635 2.04809 9.86894 2.03157 10.0682C2.00821 11.0672 2.24568 12.0587 2.72771 12.9745C3.20974 13.8904 3.92493 14.7091 4.82429 15.3745C4.65728 15.5352 4.54528 15.7301 4.49995 15.9388C4.45461 16.1476 4.47759 16.3626 4.5665 16.5615C5.3959 18.3945 7.01966 19.9054 9.12079 20.7994C6.88198 21.4977 4.50958 21.8556 2.1175 21.8559C1.80495 21.8586 1.50202 21.9459 1.25494 22.1046C1.00786 22.2632 0.830195 22.4846 0.749052 22.7348C0.667909 22.985 0.687745 23.2503 0.805532 23.4903C0.92332 23.7303 1.13259 23.9317 1.40142 24.0639C5.06832 25.9319 9.27151 26.9524 13.5748 27.0197C18.6121 26.9719 23.4726 25.4738 27.3236 22.7818C29.9826 21.0269 32.1059 18.7778 33.5216 16.2164C34.9373 13.6551 35.6057 10.8535 35.4726 8.03829C36.5577 7.36585 37.3675 6.43355 37.7927 5.36736C37.8894 5.17254 37.9218 4.95991 37.8865 4.7513C37.8513 4.54269 37.7497 4.3456 37.5922 4.18027Z" fill="white" fill-opacity="0.79"/>
<path d="M36.708 4.09961L36.9347 3.73745C37.2306 3.26472 37.4348 2.7595 37.5422 2.23991C37.5691 2.10333 37.5487 1.9611 37.4775 1.82689C37.4052 1.69069 37.2803 1.56362 37.1072 1.46995L37.106 1.46928C36.932 1.37428 36.7224 1.32093 36.5038 1.32093C36.2852 1.32093 36.0756 1.37428 35.9016 1.46927L35.8997 1.47032C34.8664 2.02677 33.716 2.41102 32.512 2.60384L32.3458 2.63045L32.213 2.52713C30.9368 1.53412 29.3133 0.886508 27.5627 0.681564C25.8127 0.476693 24.0311 0.725443 22.4636 1.39029C20.8294 2.09975 19.5401 3.23147 18.7834 4.59519C18.0279 5.95673 17.8409 7.47984 18.2443 8.9318L18.2479 8.94458L18.2476 8.94463C18.2945 9.13897 18.4389 9.33293 18.6806 9.46646C18.9229 9.60038 19.2285 9.6526 19.5266 9.60319C19.825 9.55373 20.0693 9.41067 20.2171 9.22691C20.36 9.04917 20.4042 8.84687 20.361 8.65845C20.0392 7.53096 20.1725 6.34782 20.7345 5.29506C21.2967 4.24199 22.2518 3.38504 23.4392 2.84285L23.4498 2.83801L23.4498 2.83817C24.7257 2.30135 26.1764 2.1347 27.5745 2.36104C28.9673 2.58652 30.2408 3.19138 31.1895 4.09209C31.3039 4.18502 31.4481 4.25839 31.6125 4.30175C31.7812 4.34624 31.9618 4.35661 32.1378 4.33129L32.1653 4.32734H32.193H32.551H33.5965L32.8031 5.00824C32.688 5.10706 32.611 5.22139 32.5706 5.33757C32.5305 5.45289 32.5255 5.57224 32.5548 5.68796C32.5843 5.80439 32.6496 5.92079 32.7537 6.02437C32.8581 6.12831 32.9973 6.21487 33.1625 6.27099L33.8979 6.52087L33.2556 6.95765C33.1218 7.04863 33.0257 7.16019 32.9679 7.27715C32.9107 7.39318 32.891 7.51451 32.9063 7.63237L32.908 7.64593L32.9078 7.64595C33.1527 10.2524 32.6222 12.866 31.3676 15.2562C30.1145 17.6436 28.1791 19.7322 25.738 21.3443C23.2304 23.1264 20.203 24.3207 16.9662 24.8106C13.727 25.3009 10.3885 25.0691 7.29074 24.1379L7.34894 23.3837C9.69944 23.0572 11.8842 22.1881 13.6535 20.8832C13.773 20.7645 13.8416 20.6291 13.8637 20.4956C13.8867 20.3575 13.8615 20.2137 13.7837 20.0787L13.7833 20.0781C13.7057 19.9428 13.5757 19.8182 13.3989 19.7284C13.222 19.6386 13.0122 19.5909 12.7958 19.5958L12.7846 19.596L12.7846 19.5958C11.9227 19.5903 11.0706 19.4321 10.2848 19.1303C9.49902 18.8285 8.79496 18.389 8.22215 17.8376L7.66252 17.2988L8.42962 17.1764C8.89778 17.1017 9.34886 16.9706 9.76843 16.7882L9.77668 16.7846L9.77672 16.7847C9.98111 16.7014 10.1355 16.5724 10.2289 16.4274C10.321 16.2844 10.3521 16.1298 10.3283 15.9822C10.305 15.8385 10.228 15.6923 10.0915 15.5673C9.95427 15.4416 9.76581 15.3462 9.54725 15.3032L9.54674 15.3031C8.55877 15.1072 7.63356 14.7256 6.84296 14.1838C6.05225 13.642 5.41485 12.9527 4.98558 12.1646L4.67388 11.5923H5.32555C5.51751 11.5923 5.70578 11.6088 5.88057 11.6251C5.8949 11.6264 5.90914 11.6278 5.92331 11.6291C6.08661 11.6444 6.2396 11.6587 6.39769 11.6637L6.40909 11.6641L6.40908 11.6642C6.64486 11.6787 6.87637 11.6303 7.0689 11.5314C7.25818 11.4341 7.3924 11.2975 7.46645 11.1512C7.52742 11.0081 7.53321 10.8571 7.48526 10.7135C7.43579 10.5654 7.32695 10.4201 7.15778 10.3065L7.14892 10.3006L7.1404 10.2941C4.67214 8.43204 3.96853 6.35268 4.36295 4.78613L4.51759 4.17195L4.99368 4.58966C7.63708 6.90892 11.0588 8.53279 14.8293 9.24743C14.9739 9.26959 15.1227 9.26822 15.2666 9.24343C15.4123 9.21831 15.5479 9.17009 15.6657 9.10361C15.7835 9.03715 15.8795 8.95483 15.9511 8.86434C16.0225 8.7741 16.0683 8.67752 16.0905 8.58095C16.1125 8.48467 16.1115 8.38638 16.0874 8.29016L16.4254 8.20541L16.0874 8.29016C16.0632 8.19362 16.0152 8.0973 15.9416 8.00767C15.8678 7.9178 15.7697 7.83657 15.6502 7.77161C15.5307 7.70664 15.3939 7.66028 15.2475 7.63723L15.2339 7.63508L15.2339 7.63484C11.2812 6.86716 7.75575 4.99116 5.25861 2.30901C5.16958 2.21589 5.05276 2.13533 4.91339 2.0768C4.77334 2.01798 4.61676 1.98411 4.45499 1.9794L4.45437 1.97938C4.29134 1.97437 4.13029 1.99921 3.98331 2.05076C3.84189 2.10035 3.71971 2.17243 3.6227 2.25873C2.75725 3.20959 2.26334 4.34354 2.19046 5.51284C2.11726 6.68709 2.47093 7.85913 3.21745 8.87784L3.66882 9.49379H2.90519H2.86587C2.7388 9.56184 2.63595 9.64886 2.56124 9.74532C2.47635 9.85492 2.42998 9.97341 2.41831 10.09C2.39884 11.0164 2.61986 11.9384 3.07028 12.7942C3.52304 13.6545 4.19813 14.4296 5.05454 15.0632L5.42282 15.3357L5.09274 15.6534C4.97613 15.7656 4.90591 15.8937 4.87825 16.021C4.85086 16.1472 4.86392 16.2779 4.91959 16.4028C5.70364 18.1349 7.24793 19.5818 9.27235 20.4432L10.2413 20.8554L9.23606 21.169C6.9597 21.879 4.54895 22.2426 2.11912 22.243M36.708 4.09961L13.5711 26.6326C13.5728 26.6326 13.5744 26.6326 13.5761 26.6326M36.708 4.09961L37.0907 4.2896C37.1791 4.33349 37.2539 4.38808 37.3133 4.44878M36.708 4.09961L37.3133 4.44878M2.11912 22.243C2.1186 22.243 2.11807 22.243 2.11755 22.243L2.1175 21.8559L2.12078 22.243C2.12023 22.243 2.11967 22.243 2.11912 22.243ZM2.11912 22.243C1.87532 22.2454 1.64532 22.3139 1.46413 22.4303C1.283 22.5466 1.16761 22.699 1.11729 22.8542C1.06775 23.007 1.07878 23.1684 1.15305 23.3197C1.22859 23.4736 1.37048 23.6173 1.57224 23.7165L1.57716 23.7189L1.57714 23.7189C5.18765 25.5582 9.33068 26.5655 13.5761 26.6326M13.5761 26.6326C18.5394 26.5845 23.3208 25.1076 27.1018 22.4645L27.1103 22.4586L27.1104 22.4587C29.7219 20.7351 31.8 18.531 33.1828 16.0291C34.5652 13.528 35.2154 10.7973 35.0859 8.05656L35.0752 7.82916L35.2687 7.70923C36.2916 7.0753 37.042 6.20461 37.4332 5.22394L37.439 5.20937L37.4459 5.19531C37.5074 5.07148 37.526 4.94146 37.5048 4.81577C37.4835 4.68991 37.4211 4.56248 37.3133 4.44878M13.5761 26.6326L37.3133 4.44878M9.12079 20.7994L8.96922 21.1556C8.82869 21.0958 8.69013 21.0333 8.55365 20.9682C8.74359 20.9144 8.93266 20.8581 9.12079 20.7994ZM9.12079 20.7994L9.00552 20.4298C8.86732 20.473 8.7286 20.5147 8.58938 20.5552C8.76285 20.6411 8.94005 20.7225 9.12079 20.7994ZM4.82429 15.3745C4.72761 15.4675 4.64936 15.572 4.59181 15.684C4.59255 15.6846 4.5933 15.6851 4.59404 15.6857L4.82429 15.3745ZM4.82429 15.3745L4.55585 15.0955C4.54245 15.1084 4.52929 15.1215 4.51638 15.1348C4.61645 15.2167 4.71911 15.2966 4.82429 15.3745Z" stroke="white" stroke-opacity="0.79" stroke-width="0.774248"/>
</svg>
