<svg width="25" height="28" viewBox="0 0 25 28" fill="none" xmlns="http://www.w3.org/2000/svg">
<path fill-rule="evenodd" clip-rule="evenodd" d="M12.4981 14.2016C10.1201 14.2016 7.92281 12.9329 6.73384 10.8736C5.54487 8.81422 5.54487 6.27699 6.73384 4.21763C7.92281 2.15827 10.1201 0.88965 12.4981 0.889648C14.876 0.889648 17.0733 2.15826 18.2623 4.21762C19.4513 6.27698 19.4513 8.81422 18.2623 10.8736C17.0733 12.9329 14.876 14.2016 12.4981 14.2016H12.4981ZM12.498 11.5392C14.7036 11.5392 16.4916 9.75127 16.4916 7.54568C16.4916 5.3401 14.7036 3.55211 12.498 3.5521C10.2924 3.55209 8.50444 5.34007 8.50443 7.54565C8.50442 9.75124 10.2924 11.5392 12.498 11.5392H12.498ZM24.4788 26.1824C24.4788 26.658 24.225 27.0975 23.8132 27.3353C23.4013 27.5731 22.8938 27.5731 22.482 27.3353C22.0701 27.0975 21.8164 26.658 21.8164 26.1824V23.5201C21.8164 21.3145 20.0284 19.5265 17.8228 19.5265H7.17329C4.9677 19.5265 3.17972 21.3145 3.17972 23.5201V26.1824C3.17972 26.658 2.92599 27.0975 2.51412 27.3353C2.10225 27.5731 1.5948 27.5731 1.18293 27.3353C0.771058 27.0975 0.517334 26.658 0.517334 26.1824V23.5201C0.517333 19.8441 3.49731 16.8641 7.17329 16.8641H17.8228C21.4988 16.8641 24.4788 19.8441 24.4788 23.5201V26.1824Z" fill="#9E9E9E"/>
</svg>
