<svg width="49" height="43" viewBox="0 0 49 43" fill="none" xmlns="http://www.w3.org/2000/svg">
<path d="M15.8814 39.5755C18.2173 41.4234 21.3605 42.4635 24.6386 42.4734C27.9167 42.4834 31.0696 41.4622 33.4227 39.6285L41.7953 33.3786C46.3233 29.7087 48.8638 24.7503 48.8638 19.5827C48.8638 14.4151 46.3233 9.45676 41.7953 5.78682C39.5536 3.97372 36.8876 2.53478 33.9509 1.55286C31.0142 0.570942 27.8648 0.0654297 24.6839 0.0654297C21.5031 0.0654297 18.3537 0.570942 15.417 1.55286C12.4803 2.53478 9.81432 3.97372 7.57259 5.78682C3.03477 9.47187 0.497184 14.4504 0.514492 19.6342C0.531801 24.8181 3.10259 29.7856 7.66496 33.451L15.8814 39.5755ZM12.2438 9.5258C13.8725 8.20769 15.8097 7.16154 17.9438 6.44765C20.0779 5.73375 22.3667 5.36621 24.6784 5.36621C26.9901 5.36621 29.279 5.73375 31.4131 6.44765C33.5472 7.16154 35.4844 8.20769 37.1131 9.5258C40.4082 12.1853 42.2666 15.7808 42.2855 19.5333C42.3044 23.2859 40.4825 26.8934 37.2142 29.5742L28.857 35.8029C27.7183 36.6751 26.202 37.1573 24.6288 37.1474C23.0556 37.1375 21.5489 36.6363 20.4273 35.7499L12.2438 29.6396C8.94282 26.9644 7.09072 23.3498 7.09072 19.5827C7.09072 15.8156 8.94282 12.201 12.2438 9.5258ZM13.6821 19.5023C13.6821 18.7993 14.0297 18.1252 14.6484 17.6281C15.267 17.131 16.1061 16.8518 16.981 16.8518H21.3796V13.3178C21.3796 12.6148 21.7271 11.9407 22.3458 11.4436C22.9644 10.9465 23.8035 10.6673 24.6784 10.6673C25.5534 10.6673 26.3925 10.9465 27.0111 11.4436C27.6298 11.9407 27.9773 12.6148 27.9773 13.3178V16.8518H32.3759C33.2508 16.8518 34.0899 17.131 34.7085 17.6281C35.3272 18.1252 35.6748 18.7993 35.6748 19.5023C35.6748 20.2053 35.3272 20.8794 34.7085 21.3765C34.0899 21.8736 33.2508 22.1528 32.3759 22.1528H27.9773V25.6868C27.9773 26.3898 27.6298 27.0639 27.0111 27.561C26.3925 28.0581 25.5534 28.3373 24.6784 28.3373C23.8035 28.3373 22.9644 28.0581 22.3458 27.561C21.7271 27.0639 21.3796 26.3898 21.3796 25.6868V22.1528H16.981C16.1061 22.1528 15.267 21.8736 14.6484 21.3765C14.0297 20.8794 13.6821 20.2053 13.6821 19.5023Z" fill="white"/>
</svg>
