<svg width="54" height="43" viewBox="0 0 54 43" fill="none" xmlns="http://www.w3.org/2000/svg">
<path d="M26.7791 8.90045C25.9042 8.90045 25.0651 8.6212 24.4464 8.12413C23.8278 7.62707 23.4802 6.9529 23.4802 6.24994V2.71594C23.4802 2.01298 23.8278 1.33881 24.4464 0.841745C25.0651 0.344679 25.9042 0.0654297 26.7791 0.0654297C27.654 0.0654297 28.4931 0.344679 29.1118 0.841745C29.7304 1.33881 30.078 2.01298 30.078 2.71594V6.24994C30.078 6.9529 29.7304 7.62707 29.1118 8.12413C28.4931 8.6212 27.654 8.90045 26.7791 8.90045ZM30.078 39.823V36.289C30.078 35.5861 29.7304 34.9119 29.1118 34.4148C28.4931 33.9178 27.654 33.6385 26.7791 33.6385C25.9042 33.6385 25.0651 33.9178 24.4464 34.4148C23.8278 34.9119 23.4802 35.5861 23.4802 36.289V39.823C23.4802 40.526 23.8278 41.2001 24.4464 41.6972C25.0651 42.1943 25.9042 42.4735 26.7791 42.4735C27.654 42.4735 28.4931 42.1943 29.1118 41.6972C29.7304 41.2001 30.078 40.526 30.078 39.823ZM11.3843 21.2695C11.3843 20.5665 11.0367 19.8924 10.418 19.3953C9.79937 18.8982 8.96028 18.619 8.08536 18.619H3.68683C2.81191 18.619 1.97283 18.8982 1.35416 19.3953C0.7355 19.8924 0.387939 20.5665 0.387939 21.2695C0.387939 21.9724 0.7355 22.6466 1.35416 23.1437C1.97283 23.6407 2.81191 23.92 3.68683 23.92H8.08536C8.96028 23.92 9.79937 23.6407 10.418 23.1437C11.0367 22.6466 11.3843 21.9724 11.3843 21.2695ZM53.1702 21.2695C53.1702 20.5665 52.8227 19.8924 52.204 19.3953C51.5854 18.8982 50.7463 18.619 49.8713 18.619H45.4728C44.5979 18.619 43.7588 18.8982 43.1401 19.3953C42.5215 19.8924 42.1739 20.5665 42.1739 21.2695C42.1739 21.9724 42.5215 22.6466 43.1401 23.1437C43.7588 23.6407 44.5979 23.92 45.4728 23.92H49.8713C50.7463 23.92 51.5854 23.6407 52.204 23.1437C52.8227 22.6466 53.1702 21.9724 53.1702 21.2695ZM38.8222 9.48179L40.9797 6.40191C41.3921 5.7906 41.4889 5.0736 41.2494 4.40545C41.0099 3.73731 40.4532 3.17153 39.6994 2.83009C38.9455 2.48865 38.0548 2.39889 37.2194 2.58015C36.3839 2.76142 35.6705 3.19919 35.2331 3.79911L33.0734 6.879C32.8605 7.18236 32.7241 7.51646 32.672 7.8622C32.6198 8.20794 32.6531 8.55854 32.7697 8.89397C32.8863 9.22939 33.0841 9.54306 33.3516 9.81705C33.6192 10.091 33.9514 10.32 34.3292 10.4908C34.8218 10.7158 35.3789 10.834 35.9456 10.8336C36.5313 10.8337 37.1064 10.7085 37.612 10.471C38.1175 10.2334 38.5353 9.89199 38.8222 9.48179ZM18.3251 38.7398L20.4848 35.66C20.9144 35.0474 21.0235 34.3229 20.7882 33.6457C20.5529 32.9686 19.9925 32.3942 19.2301 32.0491C18.4678 31.7039 17.566 31.6162 16.7232 31.8053C15.8803 31.9943 15.1655 32.4446 14.7359 33.0572L12.5785 36.137C12.1661 36.7483 12.0693 37.4654 12.3088 38.1335C12.5483 38.8016 13.105 39.3674 13.8588 39.7089C14.6127 40.0503 15.5033 40.1401 16.3388 39.9588C17.1743 39.7775 17.8876 39.3398 18.3251 38.7398ZM13.3636 15.2034C13.793 14.5911 13.9022 13.8668 13.6672 13.1898C13.4321 12.5128 12.872 11.9386 12.11 11.5934L8.27449 9.85993C7.51365 9.52864 6.62125 9.45082 5.78965 9.64325C4.95806 9.83568 4.25388 10.283 3.82892 10.8886C3.40395 11.4943 3.29223 12.2099 3.51783 12.8812C3.74344 13.5525 4.28831 14.1256 5.03498 14.4771L8.86829 16.2123C9.24587 16.3834 9.6617 16.493 10.092 16.5348C10.5223 16.5767 10.9587 16.55 11.3762 16.4563C11.7937 16.3626 12.1841 16.2037 12.5251 15.9887C12.8661 15.7737 13.151 15.5069 13.3636 15.2034ZM49.779 31.6718C50.2084 31.0595 50.3176 30.3353 50.0826 29.6583C49.8475 28.9813 49.2874 28.4071 48.5254 28.0618L44.6921 26.3266C44.3146 26.1557 43.8989 26.0462 43.4688 26.0044C43.0386 25.9626 42.6025 25.9892 42.1851 26.0828C41.7678 26.1765 41.3775 26.3352 41.0365 26.55C40.6956 26.7648 40.4106 27.0314 40.1979 27.3347C39.9852 27.638 39.8489 27.972 39.7968 28.3176C39.7448 28.6632 39.7779 29.0136 39.8945 29.3489C40.1297 30.0261 40.6902 30.6004 41.4526 30.9456L45.2859 32.679C46.048 33.0241 46.9494 33.1118 47.792 32.9229C48.6346 32.7341 49.3493 32.284 49.779 31.6718ZM19.229 10.4908C19.9914 10.1458 20.5519 9.57172 20.7874 8.89472C21.0229 8.21772 20.9141 7.49328 20.4848 6.88076L18.3251 3.79911C17.8876 3.19919 17.1743 2.76142 16.3388 2.58015C15.5033 2.39889 14.6127 2.48865 13.8588 2.83009C13.105 3.17153 12.5483 3.73731 12.3088 4.40545C12.0693 5.0736 12.1661 5.7906 12.5785 6.40191L14.7359 9.48179C15.0232 9.89166 15.441 10.2327 15.9466 10.47C16.4521 10.7072 17.0271 10.8321 17.6126 10.8318C18.1791 10.8328 18.7362 10.7152 19.229 10.4908ZM39.7261 39.7488C40.4881 39.4036 41.0482 38.8293 41.2833 38.1524C41.5184 37.4754 41.4092 36.7511 40.9797 36.1388L38.8222 33.0589C38.3927 32.4464 37.6778 31.9961 36.835 31.8071C35.9922 31.618 35.0904 31.7057 34.3281 32.0508C33.5657 32.396 33.0052 32.9703 32.7699 33.6475C32.5346 34.3247 32.6438 35.0492 33.0734 35.6617L35.2331 38.7416C35.6627 39.3538 36.3774 39.8038 37.22 39.9927C38.0626 40.1816 38.9641 40.0939 39.7261 39.7488ZM44.6899 16.2123L48.5232 14.4771C49.2699 14.1256 49.8147 13.5525 50.0403 12.8812C50.2659 12.2099 50.1542 11.4943 49.7293 10.8886C49.3043 10.283 48.6001 9.83568 47.7685 9.64325C46.9369 9.45082 46.0445 9.52864 45.2837 9.85993L41.4504 11.5934C40.688 11.9385 40.1275 12.5128 39.8923 13.19C39.657 13.8672 39.7661 14.5917 40.1957 15.2042C40.6253 15.8167 41.3401 16.2671 42.1829 16.4561C43.0258 16.6452 43.9275 16.5575 44.6899 16.2123ZM8.27449 32.679L12.1078 30.9456C12.4853 30.7747 12.8172 30.5457 13.0845 30.2718C13.3519 29.9978 13.5494 29.6842 13.6659 29.3489C13.7824 29.0136 13.8156 28.6632 13.7635 28.3176C13.7115 27.972 13.5752 27.638 13.3625 27.3347C13.1498 27.0314 12.8648 26.7648 12.5238 26.55C12.1829 26.3352 11.7926 26.1765 11.3752 26.0828C10.9579 25.9892 10.5217 25.9626 10.0916 26.0044C9.66145 26.0462 9.24577 26.1557 8.86829 26.3266L5.03498 28.0618C4.40037 28.3499 3.90236 28.7987 3.61873 29.3382C3.33511 29.8776 3.28183 30.4774 3.46723 31.0437C3.65262 31.6101 4.06625 32.1112 4.64351 32.4687C5.22077 32.8262 5.92916 33.0201 6.65804 33.0201C7.22458 33.0211 7.78169 32.9036 8.27449 32.679Z" fill="white"/>
</svg>
